Coordinates	
version=1	
nRows=336	
nColumns=2	
inDegrees=yes	
endheader	
time	shoulder_elv
2.500201843	12.73197778
2.502700432	12.9144594
2.505199022	13.09603261
2.507278113	13.24641029
2.509357204	13.39614347
2.511918715	13.57971391
2.514480225	13.7622794
2.516481046	13.90416723
2.518481867	14.04542891
2.521152282	14.23297026
2.523822696	14.41936819
2.52573217	14.55193482
2.527641643	14.68390631
2.530475806	14.87866983
2.532802344	15.03754604
2.535128882	15.19550296
2.53745542	15.35253917
2.539781958	15.50863807
2.542108496	15.66380104
2.544435034	15.81800873
2.546480441	15.95279763
2.548525847	16.08683749
2.551020182	16.2492837
2.553514517	16.41060108
2.555573623	16.54292066
2.557632728	16.67445856
2.560148873	16.83413211
2.562665018	16.99262346
2.564636877	17.1160057
2.566608737	17.23865138
2.569230983	17.40060951
2.57185323	17.56125063
2.573743505	17.67623506
2.575633781	17.79052563
2.578400746	17.95657239
2.580772211	18.09769142
2.583143677	18.23770754
2.585515143	18.37660555
2.5874792	18.49079939
2.589443257	18.60421866
2.592006645	18.75108451
2.594570033	18.89662015
2.596527423	19.00685626
2.598484812	19.11630803
2.601107343	19.26172489
2.603729874	19.40572246
2.605579642	19.50643804
2.60742941	19.60644009
2.610229566	19.75646627
2.612610437	19.88273436
2.614991309	20.00781329
2.61709919	20.11754712
2.619207072	20.22634233
2.621314954	20.33418922
2.62391316	20.46581939
2.626043777	20.57267678
2.628174395	20.67856036
2.630305012	20.78346072
2.632868802	20.90838671
2.634976895	21.0100332
2.637084988	21.11071311
2.639193081	21.21041754
2.641805193	21.33260867
2.643905922	21.42978371
2.646006652	21.52598652
2.648107381	21.62120854
2.650740257	21.73916878
2.652829724	21.83167901
2.65491919	21.92321593
2.657008657	22.0137714
2.65966966	22.12767786
2.661750128	22.21561838
2.663830596	22.30258336
2.665911063	22.38856496
2.66859547	22.4980553
2.670667337	22.5814357
2.672739203	22.66383881
2.674811069	22.7452571
2.677517473	22.85012968
2.67958181	22.92898644
2.681646147	23.00686394
2.683710483	23.08375491
2.686435841	23.18375857
2.688493551	23.25811876
2.690551261	23.3314976
2.692608971	23.4038881
2.695350352	23.49879729
2.697402407	23.56868795
2.699454462	23.63759496
2.701919415	23.71905705
2.704110547	23.79027327
2.706301679	23.86035447
2.708492811	23.92930623
2.710683943	23.99711928
2.712875075	24.06379907
2.715066207	24.1293366
2.717257339	24.1937372
2.719448471	24.25699214
2.721639603	24.31910667
2.723830735	24.38007227
2.726021867	24.43989414
2.728212999	24.49856393
2.730404131	24.55608687
2.732595263	24.61245472
2.734786395	24.66767275
2.736977527	24.72173281
2.739168659	24.77464025
2.741359791	24.82638699
2.743550924	24.87697845
2.745742056	24.92640661
2.747933188	24.97467701
2.75012432	25.02178162
2.752315452	25.06772617
2.754506584	25.11250258
2.756697716	25.15611675
2.758888848	25.19856057
2.76107998	25.23984016
2.763271112	25.27994729
2.765462244	25.31888835
2.767653376	25.35665499
2.769844508	25.39325385
2.77203564	25.42867646
2.774226772	25.46292976
2.776417904	25.49600509
2.778609036	25.52790972
2.780800168	25.5586348
2.7829913	25.58818794
2.785182432	25.61656007
2.787373564	25.64375918
2.789564696	25.66977594
2.791755828	25.69461874
2.79394696	25.71827797
2.796138092	25.74076247
2.798329224	25.7620623
2.800520356	25.78218677
2.802711488	25.80112559
2.80490262	25.81888858
2.807093752	25.83546505
2.809284884	25.85086536
2.811476016	25.86507843
2.813667148	25.87811515
2.815858281	25.88996401
2.818049413	25.90063649
2.820240545	25.91012062
2.822431677	25.91842847
2.824622809	25.92554761
2.826813941	25.93149072
2.828779833	25.93581122
2.830745726	25.93918377
2.833165167	25.94202551
2.835584608	25.94342937
2.837565399	25.94350177
2.83954619	25.9426119
2.842000274	25.94016766
2.844454358	25.93624537
2.846354226	25.93218708
2.848254095	25.92724456
2.850832686	25.91911474
2.85314801	25.91042519
2.855463335	25.90041441
2.857440343	25.89082883
2.859417351	25.88028044
2.861834178	25.86608528
2.864251006	25.85045423
2.866220782	25.83665942
2.868190558	25.82191082
2.870645357	25.80220344
2.873100156	25.78101788
2.875011588	25.76350522
2.876923019	25.74509652
2.879462734	25.7192586
2.882002449	25.69184302
2.883855401	25.67085232
2.885708354	25.64902193
2.888357825	25.61635693
2.890674122	25.58639812
2.89299042	25.55513872
2.895065587	25.52602278
2.897140753	25.49586567
2.89921592	25.46466204
2.901743133	25.42525558
2.903850042	25.39121844
2.905956951	25.35611198
2.90806386	25.31993109
2.91017077	25.28268174
2.912814378	25.23442823
2.914779436	25.19747391
2.916744494	25.15958867
2.919277713	25.10938444
2.921810931	25.05763799
2.923616147	25.01982944
2.925421363	24.98123872
2.928163393	24.92113447
2.930537965	24.86763433
2.932912537	24.81279562
2.934914986	24.76550483
2.936917435	24.71726585
2.939354174	24.65728032
2.941790914	24.59589356
2.943734435	24.54592219
2.945677956	24.49506338
2.948212425	24.42740196
2.950746893	24.35823437
2.952617642	24.30620902
2.95448839	24.25336736
2.957166148	24.17630501
2.959406698	24.11054132
2.961647248	24.04360561
2.963887797	23.97550656
2.966128347	23.90623931
2.968368897	23.83581434
2.970609446	23.76422497
2.972849996	23.69148387
2.975090546	23.6175821
2.977054295	23.55186807
2.979018044	23.48526732
2.981468093	23.40094056
2.983918142	23.31524211
2.985937642	23.24358088
2.987957143	23.170991
2.99040771	23.0816697
2.992858276	22.99098891
2.994803936	22.9180328
2.996749596	22.8442232
2.999296209	22.74633693
3.001842823	22.64699835
3.003736801	22.57218502
3.00563078	22.49657167
3.00828528	22.38926045
3.010612742	22.2938871
3.012940204	22.1973245
3.015267665	22.09956784
3.017237957	22.01589103
3.019208249	21.93136374
3.02170388	21.82308919
3.024199511	21.71346108
3.026184467	21.62530903
3.028169422	21.53630526
3.030703081	21.42147189
3.03323674	21.30526205
3.035145065	21.21683506
3.037053391	21.12763171
3.039711618	21.00209255
3.04205237	20.89031121
3.044393122	20.77738344
3.046733873	20.6633053
3.048716774	20.56577955
3.050699674	20.46743476
3.053210824	20.34172737
3.055721974	20.21471954
3.057719721	20.11276002
3.059717467	20.00998343
3.062268606	19.87756119
3.064819745	19.74382015
3.066740017	19.64229248
3.06866029	19.54002345
3.071340328	19.39606477
3.073696024	19.26834984
3.076051721	19.13954428
3.078407417	19.0096453
3.080412496	18.89823197
3.082417575	18.78603463
3.084937801	18.64391272
3.087458027	18.50056784
3.089477643	18.38482541
3.091497259	18.26830545
3.094059153	18.11939415
3.096621047	17.96924826
3.098570532	17.85417893
3.100520016	17.73840243
3.103201832	17.57799308
3.105883648	17.41626552
3.107756607	17.30254646
3.109629567	17.18819179
3.112488262	17.01244323
3.114908403	16.86251893
3.117328544	16.71156605
3.119487182	16.57605533
3.12164582	16.43973994
3.123804459	16.30261902
3.126430758	16.13472111
3.128622567	15.99370176
3.130814376	15.85187958
3.133006185	15.70925438
3.135197995	15.56583837
3.137971029	15.38326226
3.140021951	15.24743232
3.142072873	15.11092435
3.144731328	14.93298781
3.147112181	14.77268553
3.149493034	14.611507
3.151873887	14.44945103
3.153907787	14.31033406
3.155941687	14.17059086
3.158526982	13.99207769
3.161112277	13.81257907
3.163179162	13.66838138
3.165246048	13.52356817
3.167862836	13.33936347
3.170479624	13.1542001
3.17246379	13.0131789
3.174447955	12.8716206
3.177200196	12.67439666
3.179952438	12.47617352
3.181855806	12.33852104
3.183759174	12.20040425
3.186701725	11.9859899
3.18916114	11.80596248
3.191620554	11.62521678
3.194079968	11.44376068
3.196173762	11.28874196
3.198267555	11.13322878
3.200858173	10.94015355
3.203448791	10.74635624
3.205537222	10.58962124
3.207625653	10.43243755
3.210270527	10.23275451
3.212915402	10.0323908
3.214974948	9.875919597
3.217034495	9.719057037
3.219745817	9.511983071
3.222457138	9.304275511
3.224477705	9.149096553
3.226498271	8.99358755
3.229430198	8.767382334
3.231783382	8.585368314
3.234136565	8.402968248
3.236489749	8.220192505
3.238842933	8.037066148
3.241196116	7.853599226
3.2435493	7.66981819
3.245902483	7.485733298
3.248255667	7.30137188
3.250608851	7.116744621
3.252962034	6.93187832
3.255315218	6.7467863
